# Blender v2.79 (sub 0) OBJ File: 'Hoos.blend'
# www.blender.org
mtllib Hoos.mtl
o Cube.003_Cube.004
v 1.190578 -63.119820 24.248701
v 7.697087 -63.119820 24.248701
v 1.190578 -63.119820 -202.546310
v 7.697087 -63.119820 -202.546310
v 1.190578 -143.402115 24.248701
v 7.697087 -143.402115 24.248701
v 1.190578 -143.402115 -202.546310
v 7.697087 -143.402115 -202.546310
v -68.806824 -53.839546 12.898621
v 36.854500 -53.839546 12.898621
v -68.806824 -53.839546 -196.106659
v 36.854500 -53.839546 -196.106659
v -68.806824 -70.501877 12.898621
v 36.854500 -70.501877 12.898621
v -68.806824 -70.501877 -196.106659
v 36.854500 -70.501877 -196.106659
v 15.722235 -70.501877 -196.106659
v -5.410031 -70.501877 -196.106659
v -26.542295 -70.501877 -196.106659
v -47.674561 -70.501877 -196.106659
v -68.806824 -70.501877 -28.902437
v -68.806824 -70.501877 -70.703491
v -68.806824 -70.501877 -112.504555
v -68.806824 -70.501877 -154.305603
v 36.854500 -70.501877 -154.305603
v 36.854500 -70.501877 -112.504555
v 36.854500 -70.501877 -70.703491
v 36.854500 -70.501877 -28.902437
v 15.722235 -70.501877 12.898621
v -5.410031 -70.501877 12.898621
v -26.542295 -70.501877 12.898621
v -47.674561 -70.501877 12.898621
v -47.674561 -70.501877 -154.305603
v -47.674561 -70.501877 -112.504555
v -47.674561 -70.501877 -70.703491
v -47.674561 -70.501877 -28.902437
v -26.542295 -70.501877 -154.305603
v -26.542295 -70.501877 -112.504555
v -26.542295 -70.501877 -70.703491
v -26.542295 -70.501877 -28.902437
v -5.410031 -70.501877 -154.305603
v -5.410031 -70.501877 -112.504555
v -5.410031 -70.501877 -70.703491
v -5.410031 -70.501877 -28.902437
v 15.722235 -70.501877 -154.305603
v 15.722235 -70.501877 -112.504555
v 15.722235 -70.501877 -70.703491
v 15.722235 -70.501877 -28.902437
v -68.806824 -53.839546 -154.305603
v -68.806824 -53.839546 -112.504555
v -68.806824 -53.839546 -70.703491
v -68.806824 -53.839546 -28.902437
v -47.674561 -53.839546 12.898621
v -26.542294 -53.839546 12.898621
v -5.410028 -53.839546 12.898621
v 15.722237 -53.839546 12.898621
v 36.854500 -53.839546 -28.902437
v 36.854500 -53.839546 -70.703491
v 36.854500 -53.839546 -112.504555
v 36.854500 -53.839546 -154.305603
v 15.722235 -53.839546 -196.106659
v -5.410031 -53.839546 -196.106659
v -26.542295 -53.839546 -196.106659
v -47.674561 -53.839546 -196.106659
v -47.674561 -53.839546 -28.902437
v -47.674561 -53.839546 -70.703491
v -47.674561 -53.839546 -112.504555
v -47.674561 -53.839546 -154.305603
v -26.542294 -53.839546 -28.902437
v -26.542294 -53.839546 -70.703491
v -26.542294 -53.839546 -112.504555
v -26.542294 -53.839546 -154.305603
v -5.410028 -53.839546 -28.902437
v -5.410028 -53.839546 -70.703491
v -5.410030 -53.839546 -112.504555
v -5.410031 -53.839546 -154.305603
v 15.722237 -53.839546 -28.902437
v 15.722237 -53.839546 -70.703491
v 15.722237 -53.839546 -112.504555
v 15.722235 -53.839546 -154.305603
v -67.575317 -135.020126 -182.356476
v 4.269723 -135.020126 -182.356476
v -67.575317 -135.020126 -188.838333
v 4.269723 -135.020126 -188.838333
v -67.575317 -138.438080 -182.356476
v 4.269723 -138.438080 -182.356476
v -67.575317 -138.438080 -188.838333
v 4.269723 -138.438080 -188.838333
v -76.488632 85.825409 12.461985
v -67.443588 85.825409 12.461985
v -76.488632 85.825409 -197.818192
v -67.443588 85.825409 -197.818192
v -76.488632 -140.924881 12.461985
v -67.443588 -140.924881 12.461985
v -76.488632 -140.924881 -197.818192
v -67.443588 -140.924881 -197.818192
v -67.575317 -135.020126 7.977429
v 4.269723 -135.020126 7.977429
v -67.575317 -135.020126 1.495562
v 4.269723 -135.020126 1.495562
v -67.575317 -138.438080 7.977429
v 4.269723 -138.438080 7.977429
v -67.575317 -138.438080 1.495562
v 4.269723 -138.438080 1.495562
vn 0.0000 1.0000 0.0000
vn 0.0000 0.0000 -1.0000
vn 0.0000 -1.0000 0.0000
vn 0.0000 0.0000 1.0000
vn -1.0000 0.0000 0.0000
vn 1.0000 0.0000 0.0000
g Cube.003_Cube.004_None
usemtl None
s off
f 2//1 3//1 1//1
f 4//2 7//2 3//2
f 8//3 5//3 7//3
f 6//4 1//4 5//4
f 7//5 1//5 3//5
f 4//6 6//6 8//6
f 60//1 61//1 80//1
f 61//2 12//2 16//2
f 28//3 29//3 48//3
f 56//4 55//4 29//4
f 13//5 9//5 52//5
f 28//6 27//6 57//6
f 36//3 13//3 21//3
f 40//3 32//3 36//3
f 44//3 31//3 40//3
f 48//3 30//3 44//3
f 20//3 24//3 15//3
f 33//3 23//3 24//3
f 35//3 21//3 22//3
f 19//3 33//3 20//3
f 37//3 34//3 33//3
f 39//3 36//3 35//3
f 18//3 37//3 19//3
f 41//3 38//3 37//3
f 43//3 40//3 39//3
f 17//3 41//3 18//3
f 45//3 42//3 41//3
f 46//3 43//3 42//3
f 47//3 44//3 43//3
f 16//3 45//3 17//3
f 25//3 46//3 45//3
f 26//3 47//3 46//3
f 27//3 48//3 47//3
f 68//1 11//1 49//1
f 72//1 64//1 68//1
f 76//1 63//1 72//1
f 80//1 62//1 76//1
f 53//1 52//1 9//1
f 65//1 51//1 52//1
f 67//1 49//1 50//1
f 54//1 65//1 53//1
f 69//1 66//1 65//1
f 71//1 68//1 67//1
f 55//1 69//1 54//1
f 73//1 70//1 69//1
f 51//2 35//2 22//2
f 75//1 72//1 71//1
f 56//1 73//1 55//1
f 77//1 74//1 73//1
f 74//1 79//1 75//1
f 75//1 80//1 76//1
f 10//1 77//1 56//1
f 57//1 78//1 77//1
f 58//1 79//1 78//1
f 79//1 60//1 80//1
f 66//2 39//2 35//2
f 70//2 43//2 39//2
f 43//5 75//5 42//5
f 42//4 71//4 38//4
f 38//4 67//4 34//4
f 34//4 50//4 23//4
f 82//1 83//1 81//1
f 84//2 87//2 83//2
f 88//3 85//3 87//3
f 86//4 81//4 85//4
f 87//5 81//5 83//5
f 84//6 86//6 88//6
f 90//1 91//1 89//1
f 92//2 95//2 91//2
f 96//3 93//3 95//3
f 94//4 89//4 93//4
f 95//5 89//5 91//5
f 92//6 94//6 96//6
f 98//1 99//1 97//1
f 100//2 103//2 99//2
f 104//3 101//3 103//3
f 102//4 97//4 101//4
f 103//5 97//5 99//5
f 100//6 102//6 104//6
f 2//1 4//1 3//1
f 4//2 8//2 7//2
f 8//3 6//3 5//3
f 6//4 2//4 1//4
f 7//5 5//5 1//5
f 4//6 2//6 6//6
f 60//1 12//1 61//1
f 15//2 11//2 64//2
f 64//2 63//2 19//2
f 63//2 62//2 19//2
f 20//2 15//2 64//2
f 17//2 18//2 61//2
f 18//2 19//2 62//2
f 61//2 18//2 62//2
f 19//2 20//2 64//2
f 16//2 17//2 61//2
f 28//3 14//3 29//3
f 9//4 13//4 32//4
f 31//4 30//4 54//4
f 30//4 29//4 55//4
f 31//4 54//4 53//4
f 9//4 32//4 53//4
f 32//4 31//4 53//4
f 55//4 54//4 30//4
f 29//4 14//4 10//4
f 10//4 56//4 29//4
f 49//5 11//5 15//5
f 24//5 23//5 50//5
f 23//5 22//5 50//5
f 49//5 15//5 24//5
f 52//5 51//5 22//5
f 51//5 50//5 22//5
f 50//5 49//5 24//5
f 22//5 21//5 52//5
f 21//5 13//5 52//5
f 25//6 16//6 12//6
f 60//6 59//6 25//6
f 59//6 58//6 26//6
f 25//6 59//6 26//6
f 25//6 12//6 60//6
f 27//6 26//6 58//6
f 27//6 58//6 57//6
f 57//6 10//6 14//6
f 14//6 28//6 57//6
f 36//3 32//3 13//3
f 40//3 31//3 32//3
f 44//3 30//3 31//3
f 48//3 29//3 30//3
f 20//3 33//3 24//3
f 33//3 34//3 23//3
f 35//3 36//3 21//3
f 19//3 37//3 33//3
f 37//3 38//3 34//3
f 39//3 40//3 36//3
f 18//3 41//3 37//3
f 41//3 42//3 38//3
f 43//3 44//3 40//3
f 17//3 45//3 41//3
f 45//3 46//3 42//3
f 46//3 47//3 43//3
f 47//3 48//3 44//3
f 16//3 25//3 45//3
f 25//3 26//3 46//3
f 26//3 27//3 47//3
f 27//3 28//3 48//3
f 68//1 64//1 11//1
f 72//1 63//1 64//1
f 76//1 62//1 63//1
f 80//1 61//1 62//1
f 53//1 65//1 52//1
f 65//1 66//1 51//1
f 67//1 68//1 49//1
f 54//1 69//1 65//1
f 69//1 70//1 66//1
f 71//1 72//1 68//1
f 55//1 73//1 69//1
f 73//1 74//1 70//1
f 51//2 66//2 35//2
f 75//1 76//1 72//1
f 56//1 77//1 73//1
f 77//1 78//1 74//1
f 74//1 78//1 79//1
f 75//1 79//1 80//1
f 10//1 57//1 77//1
f 57//1 58//1 78//1
f 58//1 59//1 79//1
f 79//1 59//1 60//1
f 66//2 70//2 39//2
f 70//2 74//2 43//2
f 43//5 74//5 75//5
f 42//4 75//4 71//4
f 38//4 71//4 67//4
f 34//4 67//4 50//4
f 82//1 84//1 83//1
f 84//2 88//2 87//2
f 88//3 86//3 85//3
f 86//4 82//4 81//4
f 87//5 85//5 81//5
f 84//6 82//6 86//6
f 90//1 92//1 91//1
f 92//2 96//2 95//2
f 96//3 94//3 93//3
f 94//4 90//4 89//4
f 95//5 93//5 89//5
f 92//6 90//6 94//6
f 98//1 100//1 99//1
f 100//2 104//2 103//2
f 104//3 102//3 101//3
f 102//4 98//4 97//4
f 103//5 101//5 97//5
f 100//6 98//6 102//6
